<svg xmlns="http://www.w3.org/2000/svg" viewBox="0 0 8 8" width="64" height="64" style="image-rendering:pixelated">
  <rect x="2" y="0" width="1" height="1" fill="#FF4444"/>
  <rect x="3" y="0" width="1" height="1" fill="#FF4444"/>
  <rect x="4" y="0" width="1" height="1" fill="#FF4444"/>
  <rect x="5" y="0" width="1" height="1" fill="#FF4444"/>
  <rect x="1" y="1" width="1" height="1" fill="#FF4444"/>
  <rect x="6" y="1" width="1" height="1" fill="#FF4444"/>
  <rect x="0" y="2" width="1" height="1" fill="#FF4444"/>
  <rect x="2" y="2" width="1" height="1" fill="#FF4444"/>
  <rect x="3" y="2" width="1" height="1" fill="#FF4444"/>
  <rect x="4" y="2" width="1" height="1" fill="#FF4444"/>
  <rect x="5" y="2" width="1" height="1" fill="#FF4444"/>
  <rect x="7" y="2" width="1" height="1" fill="#FF4444"/>
  <rect x="0" y="3" width="1" height="1" fill="#FF4444"/>
  <rect x="2" y="3" width="1" height="1" fill="#FF4444"/>
  <rect x="5" y="3" width="1" height="1" fill="#FF4444"/>
  <rect x="7" y="3" width="1" height="1" fill="#FF4444"/>
  <rect x="0" y="4" width="1" height="1" fill="#FF4444"/>
  <rect x="2" y="4" width="1" height="1" fill="#FF4444"/>
  <rect x="5" y="4" width="1" height="1" fill="#FF4444"/>
  <rect x="7" y="4" width="1" height="1" fill="#FF4444"/>
  <rect x="0" y="5" width="1" height="1" fill="#FF4444"/>
  <rect x="2" y="5" width="1" height="1" fill="#FF4444"/>
  <rect x="3" y="5" width="1" height="1" fill="#FF4444"/>
  <rect x="4" y="5" width="1" height="1" fill="#FF4444"/>
  <rect x="5" y="5" width="1" height="1" fill="#FF4444"/>
  <rect x="7" y="5" width="1" height="1" fill="#FF4444"/>
  <rect x="1" y="6" width="1" height="1" fill="#FF4444"/>
  <rect x="6" y="6" width="1" height="1" fill="#FF4444"/>
  <rect x="2" y="7" width="1" height="1" fill="#FF4444"/>
  <rect x="3" y="7" width="1" height="1" fill="#FF4444"/>
  <rect x="4" y="7" width="1" height="1" fill="#FF4444"/>
  <rect x="5" y="7" width="1" height="1" fill="#FF4444"/>
</svg>