<svg xmlns="http://www.w3.org/2000/svg" viewBox="0 0 8 8" width="64" height="64" style="image-rendering:pixelated">
  <rect x="0" y="1" width="1" height="1" fill="#4499FF"/>
  <rect x="1" y="1" width="1" height="1" fill="#4499FF"/>
  <rect x="2" y="1" width="1" height="1" fill="#4499FF"/>
  <rect x="3" y="1" width="1" height="1" fill="#4499FF"/>
  <rect x="4" y="1" width="1" height="1" fill="#4499FF"/>
  <rect x="5" y="1" width="1" height="1" fill="#4499FF"/>
  <rect x="1" y="3" width="1" height="1" fill="#4499FF"/>
  <rect x="2" y="3" width="1" height="1" fill="#4499FF"/>
  <rect x="3" y="3" width="1" height="1" fill="#4499FF"/>
  <rect x="4" y="3" width="1" height="1" fill="#4499FF"/>
  <rect x="5" y="3" width="1" height="1" fill="#4499FF"/>
  <rect x="2" y="5" width="1" height="1" fill="#4499FF"/>
  <rect x="3" y="5" width="1" height="1" fill="#4499FF"/>
  <rect x="4" y="5" width="1" height="1" fill="#4499FF"/>
  <rect x="5" y="5" width="1" height="1" fill="#4499FF"/>
</svg>